<?xml version="1.0" encoding="UTF-8" standalone="no"?>
<svg
   viewBox="0 0 64 64"
   version="1.1"
   id="svg886"
   sodipodi:docname="people.svg"
   width="64"
   height="64"
   inkscape:version="1.1.2 (0a00cf5339, 2022-02-04)"
   inkscape:export-filename="/home/nborboen/Dev/_private/searchplugins/people.png"
   inkscape:export-xdpi="96"
   inkscape:export-ydpi="96"
   xmlns:inkscape="http://www.inkscape.org/namespaces/inkscape"
   xmlns:sodipodi="http://sodipodi.sourceforge.net/DTD/sodipodi-0.dtd"
   xmlns="http://www.w3.org/2000/svg"
   xmlns:svg="http://www.w3.org/2000/svg">
  <defs
     id="defs890" />
  <sodipodi:namedview
     id="namedview888"
     pagecolor="#ffffff"
     bordercolor="#666666"
     borderopacity="1.0"
     inkscape:pageshadow="2"
     inkscape:pageopacity="0.0"
     inkscape:pagecheckerboard="true"
     showgrid="false"
     inkscape:zoom="8.7890625"
     inkscape:cx="80.270222"
     inkscape:cy="49.208889"
     inkscape:window-width="2514"
     inkscape:window-height="1376"
     inkscape:window-x="46"
     inkscape:window-y="27"
     inkscape:window-maximized="1"
     inkscape:current-layer="g1186" />
  <g
     id="g1186"
     transform="translate(-23.797661,-28.677391)">
    <g
       id="g1408"
       transform="matrix(0.50145635,0,0,0.50145156,11.770966,14.204169)">
      <ellipse
         style="opacity:1;fill:#ff0000;stroke:#ffffff;stroke-width:4;stroke-miterlimit:4;stroke-dasharray:none;stroke-opacity:1"
         id="path994"
         cx="87.797661"
         cy="92.677391"
         rx="61.814518"
         ry="61.814514" />
      <path
         d="m 71.716094,85.739007 c 0,0 1.930795,17.535713 16.081571,17.535713 14.150765,0 16.081555,-17.529331 16.081555,-17.529331 0,0 3.05029,0.638357 4.52197,-5.923975 0.94338,-4.277005 -0.31447,-5.419668 -1.1069,-5.419668 h -0.7547 C 110.23764,53.66146 95.34474,47.099128 87.797665,47.099128 c -7.547081,0 -22.439985,6.562332 -18.741916,27.296234 h -0.754708 c -0.792443,0 -2.050289,1.142664 -1.106904,5.419669 1.47168,6.59425 4.521957,5.923976 4.521957,5.923976 z m 42.722756,25.196023 c -12.74199,-2.48323 -15.30799,-5.10687 -15.785974,-7.4305 a 18.333114,18.608167 0 0 1 -21.710429,0 c -0.465403,2.32363 -3.043988,4.92813 -15.785974,7.4305 -13.11305,2.55343 -12.936952,13.52044 -12.936952,15.32062 H 127.3758 c 0,-1.81932 0.1761,-12.76719 -12.93695,-15.32062 z"
         id="path884"
         style="fill:#ffffff;stroke-width:0.633624" />
    </g>
  </g>
</svg>
